<svg xmlns="http://www.w3.org/2000/svg" version="1.1" xmlns:xlink="http://www.w3.org/1999/xlink" width="200" height="200"><svg xmlns="http://www.w3.org/2000/svg" version="1.1" xmlns:xlink="http://www.w3.org/1999/xlink" viewBox="0 0 200 200"><rect width="200" height="200" fill="url('#gradient')"></rect><defs><linearGradient id="SvgjsLinearGradient1001" gradientTransform="rotate(45 0.5 0.5)"><stop offset="0%" stop-color="#d6ce5c"></stop><stop offset="100%" stop-color="#d97e71"></stop></linearGradient></defs><g><g fill="#2e3f4e" transform="matrix(3.7879161528976573,0,0,3.7879161528976573,8.672012724065013,120.32338045969257)" stroke="#5b8d84" stroke-width="0.2"><path d="M12.24-14.22L12.24-11.57L7.97-11.57L7.97 0L4.54 0L4.54-11.57L0.35-11.57L0.35-14.22L12.24-14.22ZM17.00-10.57L17.00 0L13.70 0L13.70-10.57L17.00-10.57ZM13.51-13.29L13.51-13.29Q13.51-13.99 14.01-14.44Q14.52-14.89 15.33-14.89Q16.14-14.89 16.65-14.44Q17.16-13.99 17.16-13.29Q17.16-12.59 16.65-12.14Q16.14-11.69 15.33-11.69Q14.52-11.69 14.01-12.14Q13.51-12.59 13.51-13.29ZM18.64-5.24L18.64-5.36Q18.64-6.96 19.17-8.19Q19.70-9.42 20.68-10.09Q21.67-10.76 22.98-10.76L22.98-10.76Q24.63-10.76 25.56-9.65L25.56-9.65L25.67-10.57L28.66-10.57L28.66-0.40Q28.66 1.00 28.01 2.03Q27.36 3.06 26.13 3.61Q24.90 4.16 23.28 4.16L23.28 4.16Q22.12 4.16 21.03 3.72Q19.94 3.28 19.37 2.58L19.37 2.58L20.74 0.64Q21.66 1.73 23.16 1.73L23.16 1.73Q25.35 1.73 25.35-0.52L25.35-0.52L25.35-0.85Q24.40 0.20 22.96 0.20L22.96 0.20Q21.03 0.20 19.83-1.28Q18.64-2.76 18.64-5.24L18.64-5.24ZM21.94-5.16L21.94-5.16Q21.94-3.86 22.43-3.10Q22.92-2.34 23.80-2.34L23.80-2.34Q24.86-2.34 25.35-3.06L25.35-3.06L25.35-7.50Q24.87-8.22 23.82-8.22L23.82-8.22Q22.94-8.22 22.44-7.44Q21.94-6.65 21.94-5.16ZM35.64 0.20L35.64 0.20Q33.21 0.20 31.71-1.25Q30.21-2.71 30.21-5.03L30.21-5.03L30.21-5.30Q30.21-6.92 30.81-8.16Q31.41-9.40 32.56-10.08Q33.71-10.76 35.29-10.76L35.29-10.76Q37.52-10.76 38.81-9.38Q40.10-8.00 40.10-5.53L40.10-5.53L40.10-4.25L33.55-4.25Q33.73-3.36 34.33-2.85Q34.92-2.34 35.87-2.34L35.87-2.34Q37.43-2.34 38.31-3.44L38.31-3.44L39.81-1.66Q39.20-0.81 38.07-0.31Q36.94 0.20 35.64 0.20ZM35.27-8.22L35.27-8.22Q33.83-8.22 33.55-6.31L33.55-6.31L36.88-6.31L36.88-6.56Q36.89-7.35 36.47-7.79Q36.05-8.22 35.27-8.22ZM47.87-10.64L47.81-7.59L46.73-7.67Q45.18-7.67 44.74-6.69L44.74-6.69L44.74 0L41.45 0L41.45-10.57L44.53-10.57L44.64-9.21Q45.47-10.76 46.95-10.76L46.95-10.76Q47.48-10.76 47.87-10.64L47.87-10.64Z"></path></g></g></svg><style>@media (prefers-color-scheme: light) { :root { filter: none; } }
@media (prefers-color-scheme: dark) { :root { filter: none; } }
</style></svg>